<svg xmlns="http://www.w3.org/2000/svg" width="33" height="32" viewBox="0 0 33 32" fill="none">
  <path fill-rule="evenodd" clip-rule="evenodd" d="M16.1426 32C18.2437 32 20.3243 31.5861 22.2655 30.7821C24.2067 29.978 25.9705 28.7994 27.4563 27.3137C28.942 25.828 30.1206 24.0641 30.9247 22.1229C31.7287 20.1817 32.1426 18.1012 32.1426 16C32.1426 13.8989 31.7287 11.8183 30.9247 9.87706C30.1206 7.93586 28.942 6.17203 27.4563 4.68629C25.9705 3.20055 24.2067 2.022 22.2655 1.21793C20.3243 0.413852 18.2437 -3.13096e-08 16.1426 0C11.8991 6.32325e-08 7.82945 1.68571 4.82887 4.68629C1.82829 7.68687 0.142578 11.7565 0.142578 16C0.142578 20.2435 1.82829 24.3131 4.82887 27.3137C7.82945 30.3143 11.8991 32 16.1426 32ZM15.7301 22.4711L24.619 11.8044L21.8884 9.52889L14.2439 18.7004L10.2884 14.7431L7.77458 17.2569L13.1079 22.5902L14.4839 23.9662L15.7301 22.4711Z" fill="#3EE9B0"/>
</svg>